<?xml version="1.0" standalone="no"?>
<!DOCTYPE svg PUBLIC "-//W3C//DTD SVG 20010904//EN"
 "http://www.w3.org/TR/2001/REC-SVG-20010904/DTD/svg10.dtd">
<svg version="1.0" xmlns="http://www.w3.org/2000/svg"
 width="107.000000pt" height="106.000000pt" viewBox="0 0 107.000000 106.000000"
 preserveAspectRatio="xMidYMid meet">

<g transform="translate(0.000000,106.000000) scale(0.100000,-0.100000)"
fill="#000000" stroke="none">
<path d="M449 1050 c-353 -54 -544 -443 -379 -770 58 -114 169 -208 297 -251
94 -32 231 -32 324 -1 36 13 74 29 84 36 11 8 34 12 54 9 45 -6 72 14 75 54 2
17 19 53 38 80 99 136 133 302 93 456 -67 257 -323 426 -586 387z m224 -61
c224 -75 365 -303 328 -532 -21 -129 -96 -257 -150 -257 -37 0 -63 -21 -76
-61 -17 -48 -99 -81 -221 -87 -146 -7 -258 36 -361 137 -253 249 -152 683 187
798 87 30 207 31 293 2z m191 -835 c22 -21 3 -56 -27 -52 -37 5 -33 67 5 68 4
0 14 -7 22 -16z"/>
<path d="M250 830 l-20 -40 75 0 75 0 0 -220 0 -220 50 0 50 0 0 45 c0 35 4
45 16 45 23 0 70 -52 129 -143 l50 -77 58 0 c31 0 57 2 57 5 0 17 -100 162
-131 189 l-37 34 44 17 c59 23 87 63 88 129 1 101 -46 139 -178 146 -85 5 -91
6 -94 28 -3 21 -1 22 77 22 l81 0 0 40 0 40 -185 0 -185 0 -20 -40z m378 -186
c16 -11 22 -25 22 -54 0 -53 -26 -70 -107 -70 l-63 0 0 70 0 70 63 0 c40 0 70
-5 85 -16z"/>
</g>
</svg>
